<?xml version="1.0" standalone="no"?>
<!DOCTYPE svg PUBLIC "-//W3C//DTD SVG 20010904//EN"
 "http://www.w3.org/TR/2001/REC-SVG-20010904/DTD/svg10.dtd">
<svg version="1.0" xmlns="http://www.w3.org/2000/svg"
 width="256.000000pt" height="256.000000pt" viewBox="0 0 256.000000 256.000000"
 preserveAspectRatio="xMidYMid meet">
<metadata>
Created by potrace 1.11, written by Peter Selinger 2001-2013
</metadata>
<g transform="translate(0.000000,256.000000) scale(0.100000,-0.100000)"
fill="#000000" stroke="none">
<path d="M1139 2556 c-2 -2 -24 -6 -49 -9 -117 -14 -309 -78 -426 -143 -224
-123 -427 -337 -537 -564 -47 -99 -92 -235 -110 -340 -15 -84 -17 -373 -3
-430 3 -14 8 -35 10 -48 73 -363 313 -686 650 -872 42 -23 199 -90 225 -95 9
-2 57 -14 106 -26 77 -20 116 -23 275 -23 167 0 195 2 290 26 242 61 437 168
602 331 138 136 212 245 299 442 55 127 87 300 86 480 0 201 -38 373 -122 550
-41 85 -134 228 -194 295 -22 24 -37 48 -35 52 3 5 0 7 -8 6 -7 -2 -12 3 -11
9 2 7 -3 12 -10 10 -6 -1 -11 4 -10 10 2 7 -1 12 -5 10 -8 -2 -42 22 -100 70
-15 13 -31 23 -35 23 -5 0 -5 6 -1 13 4 6 4 9 -1 5 -4 -4 -20 1 -34 11 -111
79 -321 162 -484 191 -85 15 -356 27 -368 16z"/>
</g>
</svg>
